<svg width="140" height="140" viewBox="0 0 140 140" fill="none" xmlns="http://www.w3.org/2000/svg">
<rect width="140" height="140" fill="#F5F5F5"/>
<path d="M46.2459 123C46.1392 123 46.0426 122.977 45.9559 122.93C45.8692 122.877 45.8259 122.8 45.8259 122.7V116.47H44.2059C44.1192 116.47 44.0492 116.43 43.9959 116.35C43.9426 116.27 43.9159 116.177 43.9159 116.07C43.9159 115.977 43.9392 115.89 43.9859 115.81C44.0326 115.73 44.1059 115.69 44.2059 115.69H48.2859C48.3859 115.69 48.4592 115.73 48.5059 115.81C48.5526 115.89 48.5759 115.977 48.5759 116.07C48.5759 116.17 48.5526 116.263 48.5059 116.35C48.4592 116.43 48.3859 116.47 48.2859 116.47H46.6659V122.7C46.6659 122.8 46.6226 122.877 46.5359 122.93C46.4492 122.977 46.3526 123 46.2459 123ZM49.7882 123C49.6949 123 49.6082 122.977 49.5282 122.93C49.4482 122.877 49.4082 122.8 49.4082 122.7V115.99C49.4082 115.89 49.4482 115.817 49.5282 115.77C49.6082 115.717 49.6949 115.69 49.7882 115.69H53.3482C53.4549 115.69 53.5282 115.73 53.5682 115.81C53.6149 115.89 53.6382 115.973 53.6382 116.06C53.6382 116.16 53.6116 116.25 53.5582 116.33C53.5116 116.41 53.4416 116.45 53.3482 116.45H50.2482V118.99H51.8082C51.9016 118.99 51.9716 119.027 52.0182 119.1C52.0716 119.173 52.0982 119.257 52.0982 119.35C52.0982 119.43 52.0749 119.507 52.0282 119.58C51.9882 119.653 51.9149 119.69 51.8082 119.69H50.2482V122.24H53.3482C53.4416 122.24 53.5116 122.28 53.5582 122.36C53.6116 122.433 53.6382 122.523 53.6382 122.63C53.6382 122.717 53.6149 122.8 53.5682 122.88C53.5282 122.96 53.4549 123 53.3482 123H49.7882ZM56.4978 123.06C56.1111 123.06 55.7544 122.99 55.4278 122.85C55.1011 122.703 54.8411 122.47 54.6478 122.15C54.4544 121.83 54.3578 121.407 54.3578 120.88V117.87C54.3578 117.343 54.4544 116.92 54.6478 116.6C54.8478 116.28 55.1111 116.05 55.4378 115.91C55.7644 115.763 56.1211 115.69 56.5078 115.69C56.9611 115.69 57.3478 115.767 57.6678 115.92C57.9878 116.073 58.2344 116.283 58.4078 116.55C58.5811 116.81 58.6678 117.103 58.6678 117.43C58.6678 117.617 58.6311 117.74 58.5578 117.8C58.4911 117.86 58.3878 117.89 58.2478 117.89C58.1144 117.89 58.0111 117.863 57.9378 117.81C57.8711 117.757 57.8344 117.687 57.8278 117.6C57.8211 117.5 57.8011 117.387 57.7678 117.26C57.7411 117.127 57.6811 117 57.5878 116.88C57.5011 116.753 57.3711 116.65 57.1978 116.57C57.0311 116.49 56.8078 116.45 56.5278 116.45C56.1011 116.45 55.7711 116.567 55.5378 116.8C55.3111 117.027 55.1978 117.383 55.1978 117.87V120.88C55.1978 121.367 55.3144 121.727 55.5478 121.96C55.7811 122.187 56.1178 122.3 56.5578 122.3C56.8378 122.3 57.0578 122.26 57.2178 122.18C57.3844 122.1 57.5078 122 57.5878 121.88C57.6678 121.76 57.7244 121.633 57.7578 121.5C57.7911 121.36 57.8144 121.23 57.8278 121.11C57.8344 121.01 57.8744 120.937 57.9478 120.89C58.0211 120.843 58.1211 120.82 58.2478 120.82C58.3878 120.82 58.4911 120.853 58.5578 120.92C58.6311 120.98 58.6678 121.103 58.6678 121.29C58.6678 121.617 58.5778 121.917 58.3978 122.19C58.2244 122.457 57.9744 122.67 57.6478 122.83C57.3278 122.983 56.9444 123.06 56.4978 123.06ZM60.17 123C60.07 123 59.9734 122.977 59.88 122.93C59.7934 122.877 59.75 122.8 59.75 122.7V115.98C59.75 115.88 59.7934 115.807 59.88 115.76C59.9734 115.713 60.07 115.69 60.17 115.69C60.2767 115.69 60.3734 115.713 60.46 115.76C60.5467 115.807 60.59 115.88 60.59 115.98V118.86H63.3V115.98C63.3 115.88 63.3434 115.807 63.43 115.76C63.5234 115.713 63.62 115.69 63.72 115.69C63.8267 115.69 63.9234 115.713 64.01 115.76C64.0967 115.807 64.14 115.88 64.14 115.98V122.7C64.14 122.8 64.0967 122.877 64.01 122.93C63.9234 122.977 63.8267 123 63.72 123C63.62 123 63.5234 122.977 63.43 122.93C63.3434 122.877 63.3 122.8 63.3 122.7V119.56H60.59V122.7C60.59 122.8 60.5467 122.877 60.46 122.93C60.3734 122.977 60.2767 123 60.17 123ZM65.9904 123C65.8904 123 65.7937 122.977 65.7004 122.93C65.6137 122.877 65.5704 122.8 65.5704 122.7V115.98C65.5704 115.873 65.6137 115.8 65.7004 115.76C65.7937 115.713 65.8904 115.69 65.9904 115.69C66.097 115.69 66.187 115.71 66.2604 115.75C66.3337 115.79 66.4004 115.85 66.4604 115.93C66.5204 116.003 66.5804 116.1 66.6404 116.22L69.1204 121.09V115.98C69.1204 115.88 69.1637 115.807 69.2504 115.76C69.3437 115.713 69.4404 115.69 69.5404 115.69C69.647 115.69 69.7437 115.713 69.8304 115.76C69.917 115.807 69.9604 115.88 69.9604 115.98V122.7C69.9604 122.8 69.917 122.877 69.8304 122.93C69.7437 122.977 69.647 123 69.5404 123C69.4337 123 69.3337 122.963 69.2404 122.89C69.1537 122.817 69.0804 122.727 69.0204 122.62L66.4104 117.59V122.7C66.4104 122.8 66.367 122.877 66.2804 122.93C66.1937 122.977 66.097 123 65.9904 123ZM73.4707 123.06C73.064 123.06 72.6973 122.99 72.3707 122.85C72.0507 122.703 71.794 122.473 71.6007 122.16C71.414 121.84 71.3207 121.413 71.3207 120.88V117.87C71.3207 117.337 71.414 116.913 71.6007 116.6C71.794 116.28 72.0507 116.05 72.3707 115.91C72.6973 115.763 73.064 115.69 73.4707 115.69C73.8773 115.69 74.244 115.763 74.5707 115.91C74.8973 116.05 75.154 116.28 75.3407 116.6C75.534 116.913 75.6307 117.337 75.6307 117.87V120.88C75.6307 121.413 75.534 121.84 75.3407 122.16C75.154 122.473 74.8973 122.703 74.5707 122.85C74.244 122.99 73.8773 123.06 73.4707 123.06ZM73.4707 122.3C73.884 122.3 74.2073 122.187 74.4407 121.96C74.674 121.727 74.7907 121.367 74.7907 120.88V117.87C74.7907 117.383 74.674 117.027 74.4407 116.8C74.2073 116.567 73.884 116.45 73.4707 116.45C73.0573 116.45 72.734 116.567 72.5007 116.8C72.274 117.027 72.1607 117.383 72.1607 117.87V120.88C72.1607 121.367 72.274 121.727 72.5007 121.96C72.734 122.187 73.0573 122.3 73.4707 122.3ZM77.3566 123C77.2633 123 77.1766 122.977 77.0966 122.93C77.0166 122.877 76.9766 122.8 76.9766 122.7V115.98C76.9766 115.88 77.0199 115.807 77.1066 115.76C77.1999 115.713 77.2966 115.69 77.3966 115.69C77.5033 115.69 77.5999 115.713 77.6866 115.76C77.7733 115.807 77.8166 115.88 77.8166 115.98V122.24H80.5566C80.6499 122.24 80.7166 122.28 80.7566 122.36C80.8033 122.433 80.8266 122.52 80.8266 122.62C80.8266 122.713 80.8033 122.8 80.7566 122.88C80.7166 122.96 80.6499 123 80.5566 123H77.3566ZM83.5586 123.06C83.1519 123.06 82.7852 122.99 82.4586 122.85C82.1386 122.703 81.8819 122.473 81.6886 122.16C81.5019 121.84 81.4086 121.413 81.4086 120.88V117.87C81.4086 117.337 81.5019 116.913 81.6886 116.6C81.8819 116.28 82.1386 116.05 82.4586 115.91C82.7852 115.763 83.1519 115.69 83.5586 115.69C83.9652 115.69 84.3319 115.763 84.6586 115.91C84.9852 116.05 85.2419 116.28 85.4286 116.6C85.6219 116.913 85.7186 117.337 85.7186 117.87V120.88C85.7186 121.413 85.6219 121.84 85.4286 122.16C85.2419 122.473 84.9852 122.703 84.6586 122.85C84.3319 122.99 83.9652 123.06 83.5586 123.06ZM83.5586 122.3C83.9719 122.3 84.2952 122.187 84.5286 121.96C84.7619 121.727 84.8786 121.367 84.8786 120.88V117.87C84.8786 117.383 84.7619 117.027 84.5286 116.8C84.2952 116.567 83.9719 116.45 83.5586 116.45C83.1452 116.45 82.8219 116.567 82.5886 116.8C82.3619 117.027 82.2486 117.383 82.2486 117.87V120.88C82.2486 121.367 82.3619 121.727 82.5886 121.96C82.8219 122.187 83.1452 122.3 83.5586 122.3ZM89.1445 123.06C88.7378 123.06 88.3712 122.99 88.0445 122.85C87.7245 122.703 87.4678 122.47 87.2745 122.15C87.0878 121.83 86.9945 121.407 86.9945 120.88V117.87C86.9945 117.343 87.0878 116.92 87.2745 116.6C87.4678 116.28 87.7245 116.05 88.0445 115.91C88.3712 115.763 88.7312 115.69 89.1245 115.69C89.5645 115.69 89.9445 115.767 90.2645 115.92C90.5912 116.067 90.8445 116.273 91.0245 116.54C91.2112 116.807 91.3045 117.12 91.3045 117.48C91.3045 117.64 91.2678 117.75 91.1945 117.81C91.1212 117.863 91.0178 117.89 90.8845 117.89C90.7712 117.89 90.6745 117.87 90.5945 117.83C90.5145 117.783 90.4712 117.707 90.4645 117.6C90.4378 117.367 90.3778 117.167 90.2845 117C90.1912 116.827 90.0512 116.693 89.8645 116.6C89.6778 116.5 89.4378 116.45 89.1445 116.45C88.7312 116.45 88.4078 116.567 88.1745 116.8C87.9478 117.027 87.8345 117.383 87.8345 117.87V120.88C87.8345 121.367 87.9478 121.727 88.1745 121.96C88.4078 122.187 88.7312 122.3 89.1445 122.3C89.5578 122.3 89.8812 122.187 90.1145 121.96C90.3478 121.727 90.4645 121.367 90.4645 120.88V119.86H89.2745C89.1812 119.86 89.1078 119.823 89.0545 119.75C89.0078 119.677 88.9845 119.597 88.9845 119.51C88.9845 119.423 89.0078 119.343 89.0545 119.27C89.1078 119.197 89.1812 119.16 89.2745 119.16H91.0145C91.1078 119.16 91.1778 119.19 91.2245 119.25C91.2778 119.31 91.3045 119.383 91.3045 119.47V120.88C91.3045 121.407 91.2078 121.83 91.0145 122.15C90.8278 122.47 90.5712 122.703 90.2445 122.85C89.9178 122.99 89.5512 123.06 89.1445 123.06ZM94.4939 123C94.3939 123 94.2973 122.977 94.2039 122.93C94.1173 122.877 94.0739 122.8 94.0739 122.7V120.17C94.0739 120.13 94.0673 120.097 94.0539 120.07L91.9839 116.21C91.9706 116.177 91.9606 116.147 91.9539 116.12C91.9473 116.087 91.9439 116.06 91.9439 116.04C91.9439 115.973 91.9706 115.913 92.0239 115.86C92.0773 115.807 92.1406 115.767 92.2139 115.74C92.2939 115.707 92.3706 115.69 92.4439 115.69C92.5173 115.69 92.5739 115.71 92.6139 115.75C92.6606 115.783 92.7039 115.837 92.7439 115.91L94.4939 119.34L96.2539 115.91C96.2939 115.837 96.3373 115.783 96.3839 115.75C96.4306 115.71 96.4873 115.69 96.5539 115.69C96.6273 115.69 96.7006 115.707 96.7739 115.74C96.8539 115.767 96.9206 115.807 96.9739 115.86C97.0273 115.913 97.0539 115.973 97.0539 116.04C97.0539 116.06 97.0506 116.087 97.0439 116.12C97.0373 116.147 97.0273 116.177 97.0139 116.21L94.9439 120.07C94.9239 120.097 94.9139 120.13 94.9139 120.17V122.7C94.9139 122.8 94.8706 122.877 94.7839 122.93C94.6973 122.977 94.6006 123 94.4939 123Z" fill="#5EB8F0"/>
<path d="M41.7666 104.078C41.5413 104.078 41.3333 104 41.1426 103.844C40.9693 103.688 40.822 103.497 40.7006 103.272L36.8786 95.836H34.2786V103.09C34.2786 103.385 34.1313 103.61 33.8366 103.766C33.5593 103.922 33.2473 104 32.9006 104C32.554 104 32.2333 103.922 31.9386 103.766C31.6613 103.61 31.5226 103.385 31.5226 103.09V85.878C31.5226 85.6353 31.6006 85.4273 31.7566 85.254C31.93 85.0807 32.164 84.994 32.4586 84.994H37.3986C38.4906 84.994 39.4873 85.1587 40.3886 85.488C41.29 85.8 42.0093 86.346 42.5466 87.126C43.084 87.8887 43.3526 88.946 43.3526 90.298C43.3526 91.338 43.188 92.2047 42.8586 92.898C42.5466 93.5913 42.1133 94.146 41.5586 94.562C41.0213 94.9607 40.406 95.2553 39.7126 95.446L43.3526 102.284C43.3873 102.336 43.4133 102.405 43.4306 102.492C43.448 102.561 43.4566 102.622 43.4566 102.674C43.4566 102.899 43.37 103.125 43.1966 103.35C43.0233 103.558 42.8066 103.731 42.5466 103.87C42.304 104.009 42.044 104.078 41.7666 104.078ZM34.2786 93.626H37.3986C38.3693 93.626 39.1406 93.392 39.7126 92.924C40.302 92.456 40.5966 91.6587 40.5966 90.532C40.5966 89.4053 40.302 88.608 39.7126 88.14C39.1406 87.672 38.3693 87.438 37.3986 87.438H34.2786V93.626ZM50.9178 104.208C49.7392 104.208 48.6992 103.991 47.7978 103.558C46.8965 103.125 46.1858 102.527 45.6658 101.764C45.1458 100.984 44.8858 100.074 44.8858 99.034V96.564C44.8858 95.6453 45.1285 94.8047 45.6138 94.042C46.1165 93.2793 46.7752 92.6727 47.5898 92.222C48.4045 91.754 49.3058 91.52 50.2938 91.52C51.2298 91.52 52.0878 91.728 52.8678 92.144C53.6478 92.5427 54.2718 93.106 54.7398 93.834C55.2252 94.562 55.4678 95.394 55.4678 96.33C55.4678 97.058 55.3552 97.578 55.1298 97.89C54.9045 98.202 54.6098 98.3927 54.2458 98.462C53.8818 98.5313 53.5005 98.566 53.1018 98.566H47.6158V99.164C47.6158 100.031 47.9278 100.724 48.5518 101.244C49.1932 101.747 50.0078 101.998 50.9958 101.998C51.6025 101.998 52.0965 101.911 52.4778 101.738C52.8592 101.565 53.1798 101.4 53.4398 101.244C53.6998 101.088 53.9425 101.01 54.1678 101.01C54.3932 101.01 54.5838 101.079 54.7398 101.218C54.8958 101.357 55.0172 101.521 55.1038 101.712C55.1905 101.903 55.2338 102.076 55.2338 102.232C55.2338 102.492 55.0518 102.778 54.6878 103.09C54.3412 103.402 53.8472 103.671 53.2058 103.896C52.5645 104.104 51.8018 104.208 50.9178 104.208ZM47.6158 96.876H51.9318C52.3132 96.876 52.5645 96.824 52.6858 96.72C52.8245 96.616 52.8938 96.408 52.8938 96.096C52.8938 95.6453 52.7812 95.2293 52.5558 94.848C52.3305 94.4493 52.0185 94.146 51.6198 93.938C51.2212 93.7127 50.7705 93.6 50.2678 93.6C49.7825 93.6 49.3405 93.704 48.9418 93.912C48.5432 94.12 48.2225 94.406 47.9798 94.77C47.7372 95.134 47.6158 95.5587 47.6158 96.044V96.876ZM59.0457 104C58.647 104 58.3177 103.905 58.0577 103.714C57.815 103.523 57.6937 103.315 57.6937 103.09V92.56C57.6937 92.3 57.815 92.092 58.0577 91.936C58.3177 91.7627 58.647 91.676 59.0457 91.676C59.375 91.676 59.661 91.7627 59.9037 91.936C60.1463 92.092 60.2677 92.3 60.2677 92.56V93.496C60.5623 92.9933 60.9957 92.5427 61.5677 92.144C62.1397 91.728 62.859 91.52 63.7257 91.52C64.5057 91.52 65.1903 91.7627 65.7797 92.248C66.3863 92.7333 66.837 93.3573 67.1317 94.12C67.5823 93.236 68.163 92.586 68.8737 92.17C69.5843 91.7367 70.3123 91.52 71.0577 91.52C71.8377 91.52 72.5657 91.7193 73.2417 92.118C73.935 92.5167 74.4983 93.0973 74.9317 93.86C75.365 94.6227 75.5817 95.55 75.5817 96.642V103.09C75.5817 103.315 75.443 103.523 75.1657 103.714C74.9057 103.905 74.585 104 74.2037 104C73.8397 104 73.519 103.905 73.2417 103.714C72.9817 103.523 72.8517 103.315 72.8517 103.09V96.642C72.8517 96.0527 72.7303 95.5587 72.4877 95.16C72.2623 94.744 71.959 94.432 71.5777 94.224C71.2137 94.016 70.8323 93.912 70.4337 93.912C70.0177 93.912 69.6277 94.0247 69.2637 94.25C68.8997 94.458 68.5963 94.7613 68.3537 95.16C68.111 95.5413 67.9897 96.018 67.9897 96.59V103.116C67.9897 103.428 67.8423 103.653 67.5477 103.792C67.2703 103.931 66.9583 104 66.6117 104C66.2997 104 65.9963 103.931 65.7017 103.792C65.407 103.653 65.2597 103.428 65.2597 103.116V96.616C65.2597 96.0613 65.147 95.5847 64.9217 95.186C64.6963 94.7873 64.4017 94.484 64.0377 94.276C63.6737 94.0507 63.275 93.938 62.8417 93.938C62.443 93.938 62.053 94.042 61.6717 94.25C61.3077 94.458 61.0043 94.7613 60.7617 95.16C60.5363 95.5587 60.4237 96.0527 60.4237 96.642V103.09C60.4237 103.315 60.285 103.523 60.0077 103.714C59.7477 103.905 59.427 104 59.0457 104ZM83.1983 104.208C82.2623 104.208 81.3869 103.965 80.5723 103.48C79.7576 102.995 79.0989 102.362 78.5963 101.582C78.1109 100.785 77.8683 99.9353 77.8683 99.034V96.642C77.8683 95.7233 78.1023 94.874 78.5703 94.094C79.0556 93.314 79.7056 92.69 80.5203 92.222C81.3523 91.754 82.2536 91.52 83.2243 91.52C84.1949 91.52 85.0876 91.754 85.9023 92.222C86.7169 92.6727 87.3669 93.288 87.8523 94.068C88.3549 94.8307 88.6063 95.6887 88.6063 96.642V99.034C88.6063 99.918 88.3549 100.759 87.8523 101.556C87.3669 102.353 86.7083 102.995 85.8763 103.48C85.0616 103.965 84.1689 104.208 83.1983 104.208ZM83.2243 101.79C83.7096 101.79 84.1516 101.66 84.5502 101.4C84.9489 101.14 85.2696 100.802 85.5123 100.386C85.7549 99.9527 85.8763 99.502 85.8763 99.034V96.642C85.8763 96.1913 85.7549 95.758 85.5123 95.342C85.2696 94.926 84.9489 94.588 84.5502 94.328C84.1516 94.068 83.7096 93.938 83.2243 93.938C82.7216 93.938 82.2709 94.068 81.8723 94.328C81.4909 94.588 81.1789 94.926 80.9363 95.342C80.7109 95.758 80.5983 96.1913 80.5983 96.642V99.034C80.5983 99.502 80.7109 99.9527 80.9363 100.386C81.1789 100.802 81.4996 101.14 81.8983 101.4C82.2969 101.66 82.7389 101.79 83.2243 101.79ZM95.4788 104C94.0054 104 92.8788 103.679 92.0988 103.038C91.3188 102.379 90.9288 101.348 90.9288 99.944V86.918C90.9288 86.658 91.0674 86.45 91.3448 86.294C91.6394 86.1207 91.9514 86.034 92.2808 86.034C92.6101 86.034 92.9221 86.1207 93.2168 86.294C93.5114 86.45 93.6588 86.658 93.6588 86.918V91.676H96.8308C97.0734 91.676 97.2554 91.78 97.3768 91.988C97.5154 92.196 97.5848 92.43 97.5848 92.69C97.5848 92.95 97.5154 93.184 97.3768 93.392C97.2554 93.6 97.0734 93.704 96.8308 93.704H93.6588V99.944C93.6588 100.568 93.7888 101.01 94.0488 101.27C94.3261 101.53 94.8028 101.66 95.4788 101.66H96.3628C96.7614 101.66 97.0561 101.781 97.2468 102.024C97.4548 102.249 97.5588 102.518 97.5588 102.83C97.5588 103.125 97.4548 103.393 97.2468 103.636C97.0561 103.879 96.7614 104 96.3628 104H95.4788ZM104.848 104.208C103.669 104.208 102.629 103.991 101.728 103.558C100.826 103.125 100.116 102.527 99.5955 101.764C99.0755 100.984 98.8155 100.074 98.8155 99.034V96.564C98.8155 95.6453 99.0582 94.8047 99.5435 94.042C100.046 93.2793 100.705 92.6727 101.52 92.222C102.334 91.754 103.236 91.52 104.224 91.52C105.16 91.52 106.018 91.728 106.798 92.144C107.578 92.5427 108.202 93.106 108.67 93.834C109.155 94.562 109.398 95.394 109.398 96.33C109.398 97.058 109.285 97.578 109.06 97.89C108.834 98.202 108.54 98.3927 108.176 98.462C107.812 98.5313 107.43 98.566 107.032 98.566H101.546V99.164C101.546 100.031 101.858 100.724 102.482 101.244C103.123 101.747 103.938 101.998 104.926 101.998C105.532 101.998 106.026 101.911 106.408 101.738C106.789 101.565 107.11 101.4 107.37 101.244C107.63 101.088 107.872 101.01 108.098 101.01C108.323 101.01 108.514 101.079 108.67 101.218C108.826 101.357 108.947 101.521 109.034 101.712C109.12 101.903 109.164 102.076 109.164 102.232C109.164 102.492 108.982 102.778 108.618 103.09C108.271 103.402 107.777 103.671 107.136 103.896C106.494 104.104 105.732 104.208 104.848 104.208ZM101.546 96.876H105.862C106.243 96.876 106.494 96.824 106.616 96.72C106.754 96.616 106.824 96.408 106.824 96.096C106.824 95.6453 106.711 95.2293 106.486 94.848C106.26 94.4493 105.948 94.146 105.55 93.938C105.151 93.7127 104.7 93.6 104.198 93.6C103.712 93.6 103.27 93.704 102.872 93.912C102.473 94.12 102.152 94.406 101.91 94.77C101.667 95.134 101.546 95.5587 101.546 96.044V96.876Z" fill="#2D2C2C"/>
<rect x="62" y="30.6447" width="23" height="23" rx="2" transform="rotate(-46.3592 62 30.6447)" fill="#2D2C2C"/>
<rect x="62" y="64.6447" width="23" height="23" rx="2" transform="rotate(-46.3592 62 64.6447)" fill="#2D2C2C"/>
<rect x="45" y="47.6447" width="23" height="23" rx="2" transform="rotate(-46.3592 45 47.6447)" fill="#2D2C2C"/>
<rect x="54" y="47.2368" width="10" height="10" rx="1" transform="rotate(-46.3592 54 47.2368)" fill="#5EB8F0"/>
</svg>
